<?xml version="1.0" encoding="utf-8"?>
<!-- Generator: Adobe Illustrator 24.3.0, SVG Export Plug-In . SVG Version: 6.00 Build 0)  -->
<svg version="1.1" id="레이어_1" xmlns="http://www.w3.org/2000/svg" xmlns:xlink="http://www.w3.org/1999/xlink" x="0px"
	 y="0px" viewBox="0 0 172.4 38" style="enable-background:new 0 0 172.4 38;" xml:space="preserve">
<style type="text/css">
	.st0{clip-path:url(#SVGID_2_);fill:#E84798;}
	.st1{clip-path:url(#SVGID_2_);fill:#E84898;}
	.st2{clip-path:url(#SVGID_2_);fill:#E84998;}
	.st3{clip-path:url(#SVGID_2_);fill:#E94A99;}
	.st4{clip-path:url(#SVGID_2_);fill:#E94B99;}
	.st5{clip-path:url(#SVGID_2_);fill:#E94C99;}
	.st6{clip-path:url(#SVGID_2_);fill:#E94D99;}
	.st7{clip-path:url(#SVGID_2_);fill:#E94E9A;}
	.st8{clip-path:url(#SVGID_2_);fill:#E94F9A;}
	.st9{clip-path:url(#SVGID_2_);fill:#EA509A;}
	.st10{clip-path:url(#SVGID_2_);fill:#EA519A;}
	.st11{clip-path:url(#SVGID_2_);fill:#EA529B;}
	.st12{clip-path:url(#SVGID_2_);fill:#EA539B;}
	.st13{clip-path:url(#SVGID_2_);fill:#EA549B;}
	.st14{clip-path:url(#SVGID_2_);fill:#EA559B;}
	.st15{clip-path:url(#SVGID_2_);fill:#EB569C;}
	.st16{clip-path:url(#SVGID_2_);fill:#EB579C;}
	.st17{clip-path:url(#SVGID_2_);fill:#EB589C;}
	.st18{clip-path:url(#SVGID_2_);fill:#EB599C;}
	.st19{clip-path:url(#SVGID_2_);fill:#EB5A9D;}
	.st20{clip-path:url(#SVGID_2_);fill:#EB5B9D;}
	.st21{clip-path:url(#SVGID_2_);fill:#EC5C9D;}
	.st22{clip-path:url(#SVGID_2_);fill:#EC5D9D;}
	.st23{clip-path:url(#SVGID_2_);fill:#EC5E9E;}
	.st24{clip-path:url(#SVGID_2_);fill:#EC5F9E;}
	.st25{clip-path:url(#SVGID_2_);fill:#EC609E;}
	.st26{clip-path:url(#SVGID_2_);fill:#EC619E;}
	.st27{clip-path:url(#SVGID_2_);fill:#ED629F;}
	.st28{clip-path:url(#SVGID_2_);fill:#ED639F;}
	.st29{clip-path:url(#SVGID_2_);fill:#ED649F;}
	.st30{clip-path:url(#SVGID_2_);fill:#ED659F;}
	.st31{clip-path:url(#SVGID_2_);fill:#ED66A0;}
	.st32{clip-path:url(#SVGID_2_);fill:#ED67A0;}
	.st33{clip-path:url(#SVGID_2_);fill:#EE68A0;}
	.st34{clip-path:url(#SVGID_2_);fill:#EE69A0;}
	.st35{clip-path:url(#SVGID_2_);fill:#EE6AA1;}
	.st36{clip-path:url(#SVGID_2_);fill:#EE6BA1;}
	.st37{clip-path:url(#SVGID_2_);fill:#EE6CA1;}
	.st38{clip-path:url(#SVGID_2_);fill:#EE6DA1;}
	.st39{clip-path:url(#SVGID_2_);fill:#EF6EA2;}
	.st40{clip-path:url(#SVGID_2_);fill:#EF6FA2;}
	.st41{clip-path:url(#SVGID_2_);fill:#EF70A2;}
	.st42{clip-path:url(#SVGID_2_);fill:#EF71A2;}
	.st43{clip-path:url(#SVGID_2_);fill:#EF72A3;}
	.st44{clip-path:url(#SVGID_2_);fill:#EF73A3;}
	.st45{clip-path:url(#SVGID_2_);fill:#F074A3;}
	.st46{clip-path:url(#SVGID_2_);fill:#F075A3;}
	.st47{clip-path:url(#SVGID_2_);fill:#F076A4;}
	.st48{clip-path:url(#SVGID_2_);fill:#F077A4;}
	.st49{clip-path:url(#SVGID_2_);fill:#F078A4;}
	.st50{clip-path:url(#SVGID_2_);fill:#F079A4;}
	.st51{clip-path:url(#SVGID_2_);fill:#F17AA5;}
	.st52{clip-path:url(#SVGID_2_);fill:#F17BA5;}
	.st53{clip-path:url(#SVGID_2_);fill:#F17DA5;}
	.st54{clip-path:url(#SVGID_2_);fill:#F17EA5;}
	.st55{clip-path:url(#SVGID_2_);fill:#F17FA5;}
	.st56{clip-path:url(#SVGID_2_);fill:#F280A6;}
	.st57{clip-path:url(#SVGID_2_);fill:#F281A6;}
	.st58{clip-path:url(#SVGID_2_);fill:#F282A6;}
	.st59{clip-path:url(#SVGID_2_);fill:#F283A6;}
	.st60{clip-path:url(#SVGID_2_);fill:#F284A7;}
	.st61{clip-path:url(#SVGID_2_);fill:#F285A7;}
	.st62{clip-path:url(#SVGID_2_);fill:#F386A7;}
	.st63{clip-path:url(#SVGID_2_);fill:#F387A7;}
	.st64{clip-path:url(#SVGID_2_);fill:#F388A8;}
	.st65{clip-path:url(#SVGID_2_);fill:#F389A8;}
	.st66{clip-path:url(#SVGID_2_);fill:#F38AA8;}
	.st67{clip-path:url(#SVGID_2_);fill:#F38BA8;}
	.st68{clip-path:url(#SVGID_2_);fill:#F48CA9;}
	.st69{clip-path:url(#SVGID_2_);fill:#F48DA9;}
	.st70{clip-path:url(#SVGID_2_);fill:#F48EA9;}
	.st71{clip-path:url(#SVGID_2_);fill:#F48FA9;}
	.st72{clip-path:url(#SVGID_2_);fill:#F490AA;}
	.st73{clip-path:url(#SVGID_2_);fill:#F491AA;}
	.st74{clip-path:url(#SVGID_2_);fill:#F592AA;}
	.st75{clip-path:url(#SVGID_2_);fill:#F593AA;}
	.st76{clip-path:url(#SVGID_2_);fill:#F594AB;}
	.st77{clip-path:url(#SVGID_2_);fill:#F595AB;}
	.st78{clip-path:url(#SVGID_2_);fill:#F596AB;}
	.st79{clip-path:url(#SVGID_2_);fill:#F597AB;}
	.st80{clip-path:url(#SVGID_2_);fill:#F698AC;}
	.st81{clip-path:url(#SVGID_2_);fill:#F699AC;}
	.st82{clip-path:url(#SVGID_2_);fill:#F69AAC;}
	.st83{clip-path:url(#SVGID_2_);fill:#F69BAC;}
	.st84{clip-path:url(#SVGID_2_);fill:#F69CAD;}
	.st85{clip-path:url(#SVGID_2_);fill:#F69DAD;}
	.st86{clip-path:url(#SVGID_2_);fill:#F79EAD;}
	.st87{clip-path:url(#SVGID_2_);fill:#F79FAD;}
	.st88{clip-path:url(#SVGID_2_);fill:#F7A0AE;}
	.st89{clip-path:url(#SVGID_2_);fill:#F7A1AE;}
	.st90{clip-path:url(#SVGID_2_);fill:#F7A2AE;}
	.st91{clip-path:url(#SVGID_2_);fill:#F7A3AE;}
	.st92{clip-path:url(#SVGID_2_);fill:#F8A4AF;}
	.st93{clip-path:url(#SVGID_2_);fill:#F8A5AF;}
	.st94{clip-path:url(#SVGID_2_);fill:#F8A6AF;}
	.st95{clip-path:url(#SVGID_2_);fill:#F8A7AF;}
	.st96{clip-path:url(#SVGID_2_);fill:#F8A8B0;}
	.st97{clip-path:url(#SVGID_2_);fill:#F8A9B0;}
	.st98{clip-path:url(#SVGID_2_);fill:#F9AAB0;}
	.st99{clip-path:url(#SVGID_2_);fill:#F9ABB0;}
	.st100{clip-path:url(#SVGID_2_);fill:#F9ACB1;}
	.st101{clip-path:url(#SVGID_2_);fill:#F9ADB1;}
	.st102{clip-path:url(#SVGID_2_);fill:#F9AEB1;}
	.st103{clip-path:url(#SVGID_2_);fill:#F9AFB1;}
	.st104{clip-path:url(#SVGID_2_);fill:#FAB0B2;}
	.st105{clip-path:url(#SVGID_2_);fill:#FAB1B2;}
	.st106{clip-path:url(#SVGID_2_);fill:#FAB2B2;}
	.st107{fill:#FFFFFF;}
	.st108{clip-path:url(#SVGID_4_);fill:#E84798;}
	.st109{clip-path:url(#SVGID_4_);fill:#E84898;}
	.st110{clip-path:url(#SVGID_4_);fill:#E84998;}
	.st111{clip-path:url(#SVGID_4_);fill:#E94A99;}
	.st112{clip-path:url(#SVGID_4_);fill:#E94B99;}
	.st113{clip-path:url(#SVGID_4_);fill:#E94C99;}
	.st114{clip-path:url(#SVGID_4_);fill:#E94D99;}
	.st115{clip-path:url(#SVGID_4_);fill:#E94E9A;}
	.st116{clip-path:url(#SVGID_4_);fill:#E94F9A;}
	.st117{clip-path:url(#SVGID_4_);fill:#EA509A;}
	.st118{clip-path:url(#SVGID_4_);fill:#EA519A;}
	.st119{clip-path:url(#SVGID_4_);fill:#EA529B;}
	.st120{clip-path:url(#SVGID_4_);fill:#EA539B;}
	.st121{clip-path:url(#SVGID_4_);fill:#EA549B;}
	.st122{clip-path:url(#SVGID_4_);fill:#EA559B;}
	.st123{clip-path:url(#SVGID_4_);fill:#EB569C;}
	.st124{clip-path:url(#SVGID_4_);fill:#EB579C;}
	.st125{clip-path:url(#SVGID_4_);fill:#EB589C;}
	.st126{clip-path:url(#SVGID_4_);fill:#EB599C;}
	.st127{clip-path:url(#SVGID_4_);fill:#EB5A9D;}
	.st128{clip-path:url(#SVGID_4_);fill:#EB5B9D;}
	.st129{clip-path:url(#SVGID_4_);fill:#EC5C9D;}
	.st130{clip-path:url(#SVGID_4_);fill:#EC5D9D;}
	.st131{clip-path:url(#SVGID_4_);fill:#EC5E9E;}
	.st132{clip-path:url(#SVGID_4_);fill:#EC5F9E;}
	.st133{clip-path:url(#SVGID_4_);fill:#EC609E;}
	.st134{clip-path:url(#SVGID_4_);fill:#EC619E;}
	.st135{clip-path:url(#SVGID_4_);fill:#ED629F;}
	.st136{clip-path:url(#SVGID_4_);fill:#ED639F;}
	.st137{clip-path:url(#SVGID_4_);fill:#ED649F;}
	.st138{clip-path:url(#SVGID_4_);fill:#ED659F;}
	.st139{clip-path:url(#SVGID_4_);fill:#ED66A0;}
	.st140{clip-path:url(#SVGID_4_);fill:#ED67A0;}
	.st141{clip-path:url(#SVGID_4_);fill:#EE68A0;}
	.st142{clip-path:url(#SVGID_4_);fill:#EE69A0;}
	.st143{clip-path:url(#SVGID_4_);fill:#EE6AA1;}
	.st144{clip-path:url(#SVGID_4_);fill:#EE6BA1;}
	.st145{clip-path:url(#SVGID_4_);fill:#EE6CA1;}
	.st146{clip-path:url(#SVGID_4_);fill:#EE6DA1;}
	.st147{clip-path:url(#SVGID_4_);fill:#EF6EA2;}
	.st148{clip-path:url(#SVGID_4_);fill:#EF6FA2;}
	.st149{clip-path:url(#SVGID_4_);fill:#EF70A2;}
	.st150{clip-path:url(#SVGID_4_);fill:#EF71A2;}
	.st151{clip-path:url(#SVGID_4_);fill:#EF72A3;}
	.st152{clip-path:url(#SVGID_4_);fill:#EF73A3;}
	.st153{clip-path:url(#SVGID_4_);fill:#F074A3;}
	.st154{clip-path:url(#SVGID_4_);fill:#F075A3;}
	.st155{clip-path:url(#SVGID_4_);fill:#F076A4;}
	.st156{clip-path:url(#SVGID_4_);fill:#F077A4;}
	.st157{clip-path:url(#SVGID_4_);fill:#F078A4;}
	.st158{clip-path:url(#SVGID_4_);fill:#F079A4;}
	.st159{clip-path:url(#SVGID_4_);fill:#F17AA5;}
	.st160{clip-path:url(#SVGID_4_);fill:#F17BA5;}
	.st161{clip-path:url(#SVGID_4_);fill:#F17DA5;}
	.st162{clip-path:url(#SVGID_4_);fill:#F17EA5;}
	.st163{clip-path:url(#SVGID_4_);fill:#F17FA5;}
	.st164{clip-path:url(#SVGID_4_);fill:#F280A6;}
	.st165{clip-path:url(#SVGID_4_);fill:#F281A6;}
	.st166{clip-path:url(#SVGID_4_);fill:#F282A6;}
	.st167{clip-path:url(#SVGID_4_);fill:#F283A6;}
	.st168{clip-path:url(#SVGID_4_);fill:#F284A7;}
	.st169{clip-path:url(#SVGID_4_);fill:#F285A7;}
	.st170{clip-path:url(#SVGID_4_);fill:#F386A7;}
	.st171{clip-path:url(#SVGID_4_);fill:#F387A7;}
	.st172{clip-path:url(#SVGID_4_);fill:#F388A8;}
	.st173{clip-path:url(#SVGID_4_);fill:#F389A8;}
	.st174{clip-path:url(#SVGID_4_);fill:#F38AA8;}
	.st175{clip-path:url(#SVGID_4_);fill:#F38BA8;}
	.st176{clip-path:url(#SVGID_4_);fill:#F48CA9;}
	.st177{clip-path:url(#SVGID_4_);fill:#F48DA9;}
	.st178{clip-path:url(#SVGID_4_);fill:#F48EA9;}
	.st179{clip-path:url(#SVGID_4_);fill:#F48FA9;}
	.st180{clip-path:url(#SVGID_4_);fill:#F490AA;}
	.st181{clip-path:url(#SVGID_4_);fill:#F491AA;}
	.st182{clip-path:url(#SVGID_4_);fill:#F592AA;}
	.st183{clip-path:url(#SVGID_4_);fill:#F593AA;}
	.st184{clip-path:url(#SVGID_4_);fill:#F594AB;}
	.st185{clip-path:url(#SVGID_4_);fill:#F595AB;}
	.st186{clip-path:url(#SVGID_4_);fill:#F596AB;}
	.st187{clip-path:url(#SVGID_4_);fill:#F597AB;}
	.st188{clip-path:url(#SVGID_4_);fill:#F698AC;}
	.st189{clip-path:url(#SVGID_4_);fill:#F699AC;}
	.st190{clip-path:url(#SVGID_4_);fill:#F69AAC;}
	.st191{clip-path:url(#SVGID_4_);fill:#F69BAC;}
	.st192{clip-path:url(#SVGID_4_);fill:#F69CAD;}
	.st193{clip-path:url(#SVGID_4_);fill:#F69DAD;}
	.st194{clip-path:url(#SVGID_4_);fill:#F79EAD;}
	.st195{clip-path:url(#SVGID_4_);fill:#F79FAD;}
	.st196{clip-path:url(#SVGID_4_);fill:#F7A0AE;}
	.st197{clip-path:url(#SVGID_4_);fill:#F7A1AE;}
	.st198{clip-path:url(#SVGID_4_);fill:#F7A2AE;}
	.st199{clip-path:url(#SVGID_4_);fill:#F7A3AE;}
	.st200{clip-path:url(#SVGID_4_);fill:#F8A4AF;}
	.st201{clip-path:url(#SVGID_4_);fill:#F8A5AF;}
	.st202{clip-path:url(#SVGID_4_);fill:#F8A6AF;}
	.st203{clip-path:url(#SVGID_4_);fill:#F8A7AF;}
	.st204{clip-path:url(#SVGID_4_);fill:#F8A8B0;}
	.st205{clip-path:url(#SVGID_4_);fill:#F8A9B0;}
	.st206{clip-path:url(#SVGID_4_);fill:#F9AAB0;}
	.st207{clip-path:url(#SVGID_4_);fill:#F9ABB0;}
	.st208{clip-path:url(#SVGID_4_);fill:#F9ACB1;}
	.st209{clip-path:url(#SVGID_4_);fill:#F9ADB1;}
	.st210{clip-path:url(#SVGID_4_);fill:#F9AEB1;}
	.st211{clip-path:url(#SVGID_4_);fill:#F9AFB1;}
	.st212{clip-path:url(#SVGID_4_);fill:#FAB0B2;}
	.st213{clip-path:url(#SVGID_4_);fill:#FAB1B2;}
	.st214{clip-path:url(#SVGID_4_);fill:#FAB2B2;}
	.st215{enable-background:new    ;}
	.st216{fill:#E55C92;}
</style>
<g id="그룹_4" transform="translate(-186.808 2.994)">
	<g id="musical-note" transform="matrix(0.966, 0.259, -0.259, 0.966, 245.13, 113)">
		<g>
			<g>
				<defs>
					<path id="SVGID_1_" d="M-74-69.9c-2.6,0-4.8-1.7-4.8-3.9c0-2.1,2.2-3.9,4.8-3.9c0.9,0,1.7,0.2,2.5,0.6v-15.8
						c0-0.6,0.5-1.1,1.1-1.2c0,0,0,0,0.1,0c0.6,0,1.1,0.4,1.2,1c0.1,0.4,0.5,1,0.8,1.4l0.1,0.1c0.6,0.8,1.5,1.4,2.4,2
						c1.3,0.9,2.6,1.7,3.4,3.3c0.5,1,0.7,2.1,0.7,3.1c-0.1,1.5-0.6,3.2-1.4,4.4c0,0,0,0.1-0.1,0.1c-0.2,0.3-0.4,0.6-0.7,1
						c-0.2,0.3-0.5,0.4-0.9,0.4c0,0,0,0,0,0c-0.3,0-0.6-0.1-0.8-0.3c-0.2-0.2-0.4-0.5-0.4-0.8c0-0.3,0.1-0.6,0.3-0.8
						c0.1-0.1,0.2-0.2,0.2-0.3c0,0,0,0,0,0c-0.6-2.7-2.4-4-3.7-4.5v10.2C-69.2-71.7-71.4-69.9-74-69.9z"/>
				</defs>
				<clipPath id="SVGID_2_">
					<use xlink:href="#SVGID_1_"  style="overflow:visible;"/>
				</clipPath>
				<polygon class="st0" points="-64.5,-94.1 -70.9,-94.1 -64.9,-95.7 				"/>
				<polygon class="st0" points="-64.4,-93.9 -71.7,-93.9 -70.9,-94.1 -64.5,-94.1 				"/>
				<polygon class="st1" points="-64.3,-93.6 -72.6,-93.6 -71.7,-93.9 -64.4,-93.9 				"/>
				<polygon class="st2" points="-64.3,-93.4 -73.4,-93.4 -72.6,-93.6 -64.3,-93.6 				"/>
				<polygon class="st3" points="-64.2,-93.2 -74.3,-93.2 -73.4,-93.4 -64.3,-93.4 				"/>
				<polygon class="st4" points="-64.2,-93 -75.1,-93 -74.3,-93.2 -64.2,-93.2 				"/>
				<polygon class="st5" points="-64.1,-92.7 -75.9,-92.7 -75.1,-93 -64.2,-93 				"/>
				<polygon class="st6" points="-64,-92.5 -76.8,-92.5 -75.9,-92.7 -64.1,-92.7 				"/>
				<polygon class="st7" points="-64,-92.3 -77.6,-92.3 -76.8,-92.5 -64,-92.5 				"/>
				<polygon class="st8" points="-63.9,-92.1 -78.5,-92.1 -77.6,-92.3 -64,-92.3 				"/>
				<polygon class="st9" points="-63.9,-91.8 -79.3,-91.8 -78.5,-92.1 -63.9,-92.1 				"/>
				<polygon class="st10" points="-63.8,-91.6 -80.2,-91.6 -79.3,-91.8 -63.9,-91.8 				"/>
				<polygon class="st11" points="-63.7,-91.4 -81,-91.4 -80.2,-91.6 -63.8,-91.6 				"/>
				<polygon class="st12" points="-63.7,-91.2 -81.8,-91.2 -81,-91.4 -63.7,-91.4 				"/>
				<polygon class="st13" points="-63.6,-90.9 -82.7,-90.9 -81.8,-91.2 -63.7,-91.2 				"/>
				<polygon class="st14" points="-63.6,-90.7 -83.5,-90.7 -82.7,-90.9 -63.6,-90.9 				"/>
				<polygon class="st15" points="-63.5,-90.5 -83.9,-90.5 -83.9,-90.6 -83.5,-90.7 -63.6,-90.7 				"/>
				<polygon class="st16" points="-63.4,-90.3 -83.8,-90.3 -83.9,-90.5 -63.5,-90.5 				"/>
				<polygon class="st17" points="-63.4,-90 -83.7,-90 -83.8,-90.3 -63.4,-90.3 				"/>
				<polygon class="st18" points="-63.3,-89.8 -83.7,-89.8 -83.7,-90 -63.4,-90 				"/>
				<polygon class="st19" points="-63.2,-89.6 -83.6,-89.6 -83.7,-89.8 -63.3,-89.8 				"/>
				<polygon class="st20" points="-63.2,-89.3 -83.5,-89.3 -83.6,-89.6 -63.2,-89.6 				"/>
				<polygon class="st21" points="-63.1,-89.1 -83.5,-89.1 -83.5,-89.3 -63.2,-89.3 				"/>
				<polygon class="st22" points="-63.1,-88.9 -83.4,-88.9 -83.5,-89.1 -63.1,-89.1 				"/>
				<polygon class="st23" points="-63,-88.7 -83.4,-88.7 -83.4,-88.9 -63.1,-88.9 				"/>
				<polygon class="st24" points="-62.9,-88.4 -83.3,-88.4 -83.4,-88.7 -63,-88.7 				"/>
				<polygon class="st25" points="-62.9,-88.2 -83.2,-88.2 -83.3,-88.4 -62.9,-88.4 				"/>
				<polygon class="st26" points="-62.8,-88 -83.2,-88 -83.2,-88.2 -62.9,-88.2 				"/>
				<polygon class="st27" points="-62.8,-87.8 -83.1,-87.8 -83.2,-88 -62.8,-88 				"/>
				<polygon class="st28" points="-62.7,-87.5 -83.1,-87.5 -83.1,-87.8 -62.8,-87.8 				"/>
				<polygon class="st29" points="-62.6,-87.3 -83,-87.3 -83.1,-87.5 -62.7,-87.5 				"/>
				<polygon class="st30" points="-62.6,-87.1 -82.9,-87.1 -83,-87.3 -62.6,-87.3 				"/>
				<polygon class="st31" points="-62.5,-86.9 -82.9,-86.9 -82.9,-87.1 -62.6,-87.1 				"/>
				<polygon class="st32" points="-62.5,-86.6 -82.8,-86.6 -82.9,-86.9 -62.5,-86.9 				"/>
				<polygon class="st33" points="-62.4,-86.4 -82.8,-86.4 -82.8,-86.6 -62.5,-86.6 				"/>
				<polygon class="st34" points="-62.3,-86.2 -82.7,-86.2 -82.8,-86.4 -62.4,-86.4 				"/>
				<polygon class="st35" points="-62.3,-86 -82.6,-86 -82.7,-86.2 -62.3,-86.2 				"/>
				<polygon class="st36" points="-62.2,-85.7 -82.6,-85.7 -82.6,-86 -62.3,-86 				"/>
				<polygon class="st37" points="-62.2,-85.5 -82.5,-85.5 -82.6,-85.7 -62.2,-85.7 				"/>
				<polygon class="st38" points="-62.1,-85.3 -82.5,-85.3 -82.5,-85.5 -62.2,-85.5 				"/>
				<polygon class="st39" points="-62,-85.1 -82.4,-85.1 -82.5,-85.3 -62.1,-85.3 				"/>
				<polygon class="st40" points="-62,-84.8 -82.3,-84.8 -82.4,-85.1 -62,-85.1 				"/>
				<polygon class="st41" points="-61.9,-84.6 -82.3,-84.6 -82.3,-84.8 -62,-84.8 				"/>
				<polygon class="st42" points="-61.9,-84.4 -82.2,-84.4 -82.3,-84.6 -61.9,-84.6 				"/>
				<polygon class="st43" points="-61.8,-84.1 -82.2,-84.1 -82.2,-84.4 -61.9,-84.4 				"/>
				<polygon class="st44" points="-61.7,-83.9 -82.1,-83.9 -82.2,-84.1 -61.8,-84.1 				"/>
				<polygon class="st45" points="-61.7,-83.7 -82,-83.7 -82.1,-83.9 -61.7,-83.9 				"/>
				<polygon class="st46" points="-61.6,-83.5 -82,-83.5 -82,-83.7 -61.7,-83.7 				"/>
				<polygon class="st47" points="-61.6,-83.2 -81.9,-83.2 -82,-83.5 -61.6,-83.5 				"/>
				<polygon class="st48" points="-61.5,-83 -81.9,-83 -81.9,-83.2 -61.6,-83.2 				"/>
				<polygon class="st49" points="-61.4,-82.8 -81.8,-82.8 -81.9,-83 -61.5,-83 				"/>
				<polygon class="st50" points="-61.4,-82.6 -81.7,-82.6 -81.8,-82.8 -61.4,-82.8 				"/>
				<polygon class="st51" points="-61.3,-82.3 -81.7,-82.3 -81.7,-82.6 -61.4,-82.6 				"/>
				<polygon class="st52" points="-61.2,-82.1 -81.6,-82.1 -81.7,-82.3 -61.3,-82.3 				"/>
				<polygon class="st53" points="-61.2,-81.9 -81.6,-81.9 -81.6,-82.1 -61.2,-82.1 				"/>
				<polygon class="st54" points="-61.1,-81.7 -81.5,-81.7 -81.6,-81.9 -61.2,-81.9 				"/>
				<polygon class="st55" points="-61.1,-81.4 -81.4,-81.4 -81.5,-81.7 -61.1,-81.7 				"/>
				<polygon class="st56" points="-61,-81.2 -81.4,-81.2 -81.4,-81.4 -61.1,-81.4 				"/>
				<polygon class="st57" points="-60.9,-81 -81.3,-81 -81.4,-81.2 -61,-81.2 				"/>
				<polygon class="st58" points="-60.9,-80.8 -81.2,-80.8 -81.3,-81 -60.9,-81 				"/>
				<polygon class="st59" points="-60.8,-80.5 -81.2,-80.5 -81.2,-80.8 -60.9,-80.8 				"/>
				<polygon class="st60" points="-60.8,-80.3 -81.1,-80.3 -81.2,-80.5 -60.8,-80.5 				"/>
				<polygon class="st61" points="-60.7,-80.1 -81.1,-80.1 -81.1,-80.3 -60.8,-80.3 				"/>
				<polygon class="st62" points="-60.6,-79.9 -81,-79.9 -81.1,-80.1 -60.7,-80.1 				"/>
				<polygon class="st63" points="-60.6,-79.6 -80.9,-79.6 -81,-79.9 -60.6,-79.9 				"/>
				<polygon class="st64" points="-60.5,-79.4 -80.9,-79.4 -80.9,-79.6 -60.6,-79.6 				"/>
				<polygon class="st65" points="-60.5,-79.2 -80.8,-79.2 -80.9,-79.4 -60.5,-79.4 				"/>
				<polygon class="st66" points="-60.4,-79 -80.8,-79 -80.8,-79.2 -60.5,-79.2 				"/>
				<polygon class="st67" points="-60.3,-78.7 -80.7,-78.7 -80.8,-79 -60.4,-79 				"/>
				<polygon class="st68" points="-60.3,-78.5 -80.6,-78.5 -80.7,-78.7 -60.3,-78.7 				"/>
				<polygon class="st69" points="-60.2,-78.3 -80.6,-78.3 -80.6,-78.5 -60.3,-78.5 				"/>
				<polygon class="st70" points="-60.2,-78 -80.5,-78 -80.6,-78.3 -60.2,-78.3 				"/>
				<polygon class="st71" points="-60.1,-77.8 -80.5,-77.8 -80.5,-78 -60.2,-78 				"/>
				<polygon class="st72" points="-60,-77.6 -80.4,-77.6 -80.5,-77.8 -60.1,-77.8 				"/>
				<polygon class="st73" points="-60,-77.4 -80.3,-77.4 -80.4,-77.6 -60,-77.6 				"/>
				<polygon class="st74" points="-59.9,-77.1 -80.3,-77.1 -80.3,-77.4 -60,-77.4 				"/>
				<polygon class="st75" points="-59.9,-76.9 -80.2,-76.9 -80.3,-77.1 -59.9,-77.1 				"/>
				<polygon class="st76" points="-59.8,-76.7 -80.2,-76.7 -80.2,-76.9 -59.9,-76.9 				"/>
				<polygon class="st77" points="-59.7,-76.5 -80.1,-76.5 -80.2,-76.7 -59.8,-76.7 				"/>
				<polygon class="st78" points="-59.7,-76.2 -80,-76.2 -80.1,-76.5 -59.7,-76.5 				"/>
				<polygon class="st79" points="-59.6,-76 -80,-76 -80,-76.2 -59.7,-76.2 				"/>
				<polygon class="st80" points="-59.6,-75.8 -79.9,-75.8 -80,-76 -59.6,-76 				"/>
				<polygon class="st81" points="-59.5,-75.6 -79.9,-75.6 -79.9,-75.8 -59.6,-75.8 				"/>
				<polygon class="st82" points="-59.4,-75.3 -79.8,-75.3 -79.9,-75.6 -59.5,-75.6 				"/>
				<polygon class="st83" points="-59.4,-75.1 -79.7,-75.1 -79.8,-75.3 -59.4,-75.3 				"/>
				<polygon class="st84" points="-59.3,-74.9 -79.7,-74.9 -79.7,-75.1 -59.4,-75.1 				"/>
				<polygon class="st85" points="-59.2,-74.7 -79.6,-74.7 -79.7,-74.9 -59.3,-74.9 				"/>
				<polygon class="st86" points="-59.2,-74.4 -79.6,-74.4 -79.6,-74.7 -59.2,-74.7 				"/>
				<polygon class="st87" points="-59.1,-74.2 -79.5,-74.2 -79.6,-74.4 -59.2,-74.4 				"/>
				<polygon class="st88" points="-59.1,-74 -79.4,-74 -79.5,-74.2 -59.1,-74.2 				"/>
				<polygon class="st89" points="-59,-73.8 -79.4,-73.8 -79.4,-74 -59.1,-74 				"/>
				<polygon class="st90" points="-58.9,-73.5 -79.3,-73.5 -79.4,-73.8 -59,-73.8 				"/>
				<polygon class="st91" points="-58.9,-73.3 -79.2,-73.3 -79.3,-73.5 -58.9,-73.5 				"/>
				<polygon class="st92" points="-59.6,-73.1 -79.2,-73.1 -79.2,-73.3 -58.9,-73.3 -58.9,-73.3 				"/>
				<polygon class="st93" points="-60.4,-72.8 -79.1,-72.8 -79.2,-73.1 -59.6,-73.1 				"/>
				<polygon class="st94" points="-61.2,-72.6 -79.1,-72.6 -79.1,-72.8 -60.4,-72.8 				"/>
				<polygon class="st95" points="-62.1,-72.4 -79,-72.4 -79.1,-72.6 -61.2,-72.6 				"/>
				<polygon class="st96" points="-62.9,-72.2 -78.9,-72.2 -79,-72.4 -62.1,-72.4 				"/>
				<polygon class="st97" points="-63.8,-71.9 -78.9,-71.9 -78.9,-72.2 -62.9,-72.2 				"/>
				<polygon class="st98" points="-64.6,-71.7 -78.8,-71.7 -78.9,-71.9 -63.8,-71.9 				"/>
				<polygon class="st99" points="-65.5,-71.5 -78.8,-71.5 -78.8,-71.7 -64.6,-71.7 				"/>
				<polygon class="st100" points="-66.3,-71.3 -78.7,-71.3 -78.8,-71.5 -65.5,-71.5 				"/>
				<polygon class="st101" points="-67.1,-71 -78.6,-71 -78.7,-71.3 -66.3,-71.3 				"/>
				<polygon class="st102" points="-68,-70.8 -78.6,-70.8 -78.6,-71 -67.1,-71 				"/>
				<polygon class="st103" points="-68.8,-70.6 -78.5,-70.6 -78.6,-70.8 -68,-70.8 				"/>
				<polygon class="st104" points="-69.7,-70.4 -78.5,-70.4 -78.5,-70.6 -68.8,-70.6 				"/>
				<polygon class="st105" points="-70.5,-70.1 -78.4,-70.1 -78.5,-70.4 -69.7,-70.4 				"/>
				<polygon class="st106" points="-71.4,-69.9 -78.3,-69.9 -78.4,-70.1 -70.5,-70.1 				"/>
				<polygon class="st106" points="-78.3,-69.9 -71.4,-69.9 -77.9,-68.2 				"/>
			</g>
		</g>
		<g>
			<path class="st107" d="M-74-70.2c2.5,0,4.6-1.6,4.6-3.6v-10.6c1.4,0.5,3.6,1.9,4.2,5c-0.1,0.2-0.2,0.4-0.4,0.5
				c-0.3,0.4-0.3,1,0.1,1.3c0.2,0.2,0.4,0.2,0.6,0.2c0.3,0,0.5-0.1,0.7-0.3c0.2-0.3,0.5-0.6,0.7-0.9c0,0,0-0.1,0.1-0.1
				c0.7-1.2,1.2-2.8,1.3-4.3c0.1-1-0.2-2-0.6-3c-0.7-1.5-2-2.4-3.3-3.2c-0.9-0.6-1.8-1.2-2.4-2l-0.1-0.1c-0.4-0.5-0.8-1-0.8-1.5
				c-0.1-0.5-0.5-0.8-0.9-0.8c0,0,0,0-0.1,0c-0.5,0-0.8,0.4-0.8,0.9v16.2c-0.8-0.5-1.7-0.7-2.7-0.7c-2.5,0-4.6,1.6-4.6,3.6
				C-78.6-71.8-76.5-70.2-74-70.2 M-74-69.7c-2.8,0-5.1-1.9-5.1-4.1s2.3-4.1,5.1-4.1c0.8,0,1.5,0.1,2.2,0.4v-15.4
				c0-0.7,0.6-1.4,1.3-1.4l0,0l0,0c0,0,0.1,0,0.1,0c0.7,0,1.3,0.5,1.4,1.2c0,0.3,0.5,0.9,0.8,1.3l0.1,0.1c0.6,0.8,1.4,1.3,2.3,1.9
				c1.3,0.9,2.6,1.8,3.5,3.4c0.5,1.1,0.8,2.2,0.7,3.3c-0.1,1.6-0.6,3.2-1.4,4.6c0,0-0.1,0.1-0.1,0.1c-0.2,0.3-0.4,0.7-0.7,1
				c-0.3,0.3-0.7,0.5-1.1,0.5c-0.3,0-0.7-0.1-0.9-0.4c-0.3-0.2-0.5-0.6-0.5-1c0-0.4,0.1-0.7,0.4-1c0.1-0.1,0.1-0.2,0.2-0.3
				c-0.5-2.3-2-3.5-3.2-4.1v9.8C-68.9-71.5-71.2-69.7-74-69.7z"/>
		</g>
	</g>
	<g id="musical-note-2" transform="matrix(0.966, 0.259, -0.259, 0.966, 252.976, 113)">
		<g>
			<g>
				<defs>
					<path id="SVGID_3_" d="M-74-69.8c-2.7,0-4.9-1.8-4.9-4s2.2-4,4.9-4c0.8,0,1.7,0.2,2.4,0.5v-15.7c0-0.7,0.5-1.2,1.2-1.3
						c0,0,0.1,0,0.1,0c0.6,0,1.2,0.5,1.3,1.1c0.1,0.4,0.5,0.9,0.8,1.4l0.1,0.1c0.6,0.8,1.4,1.4,2.3,2c1.3,0.9,2.6,1.7,3.4,3.4
						c0.5,1,0.7,2.1,0.7,3.2c-0.1,1.6-0.6,3.2-1.4,4.5c0,0,0,0.1-0.1,0.1c-0.2,0.3-0.4,0.7-0.7,1c-0.2,0.3-0.6,0.4-0.9,0.4
						c0,0,0,0,0,0c-0.3,0-0.6-0.1-0.8-0.3c-0.3-0.2-0.4-0.5-0.4-0.9c0-0.3,0.1-0.7,0.3-0.9c0.1-0.1,0.2-0.2,0.2-0.3c0,0,0,0,0,0
						c-0.6-2.5-2.3-3.8-3.5-4.4v10.1C-69.1-71.6-71.3-69.8-74-69.8z"/>
				</defs>
				<clipPath id="SVGID_4_">
					<use xlink:href="#SVGID_3_"  style="overflow:visible;"/>
				</clipPath>
				<polygon class="st108" points="-64.4,-94.2 -70.9,-94.2 -64.8,-95.8 				"/>
				<polygon class="st108" points="-64.3,-94 -71.8,-94 -70.9,-94.2 -64.4,-94.2 				"/>
				<polygon class="st109" points="-64.3,-93.7 -72.6,-93.7 -71.8,-94 -64.3,-94 				"/>
				<polygon class="st110" points="-64.2,-93.5 -73.5,-93.5 -72.6,-93.7 -64.3,-93.7 				"/>
				<polygon class="st111" points="-64.1,-93.3 -74.3,-93.3 -73.5,-93.5 -64.2,-93.5 				"/>
				<polygon class="st112" points="-64.1,-93.1 -75.2,-93.1 -74.3,-93.3 -64.1,-93.3 				"/>
				<polygon class="st113" points="-64,-92.8 -76,-92.8 -75.2,-93.1 -64.1,-93.1 				"/>
				<polygon class="st114" points="-64,-92.6 -76.9,-92.6 -76,-92.8 -64,-92.8 				"/>
				<polygon class="st115" points="-63.9,-92.4 -77.7,-92.4 -76.9,-92.6 -64,-92.6 				"/>
				<polygon class="st116" points="-63.8,-92.1 -78.6,-92.1 -77.7,-92.4 -63.9,-92.4 				"/>
				<polygon class="st117" points="-63.8,-91.9 -79.4,-91.9 -78.6,-92.1 -63.8,-92.1 				"/>
				<polygon class="st118" points="-63.7,-91.7 -80.3,-91.7 -79.4,-91.9 -63.8,-91.9 				"/>
				<polygon class="st119" points="-63.6,-91.5 -81.1,-91.5 -80.3,-91.7 -63.7,-91.7 				"/>
				<polygon class="st120" points="-63.6,-91.2 -82,-91.2 -81.1,-91.5 -63.6,-91.5 				"/>
				<polygon class="st121" points="-63.5,-91 -82.8,-91 -82,-91.2 -63.6,-91.2 				"/>
				<polygon class="st122" points="-63.5,-90.8 -83.7,-90.8 -82.8,-91 -63.5,-91 				"/>
				<polygon class="st123" points="-63.4,-90.5 -84,-90.5 -84,-90.7 -83.7,-90.8 -63.5,-90.8 				"/>
				<polygon class="st124" points="-63.3,-90.3 -83.9,-90.3 -84,-90.5 -63.4,-90.5 				"/>
				<polygon class="st125" points="-63.3,-90.1 -83.9,-90.1 -83.9,-90.3 -63.3,-90.3 				"/>
				<polygon class="st126" points="-63.2,-89.9 -83.8,-89.9 -83.9,-90.1 -63.3,-90.1 				"/>
				<polygon class="st127" points="-63.2,-89.6 -83.7,-89.6 -83.8,-89.9 -63.2,-89.9 				"/>
				<polygon class="st128" points="-63.1,-89.4 -83.7,-89.4 -83.7,-89.6 -63.2,-89.6 				"/>
				<polygon class="st129" points="-63,-89.2 -83.6,-89.2 -83.7,-89.4 -63.1,-89.4 				"/>
				<polygon class="st130" points="-63,-89 -83.6,-89 -83.6,-89.2 -63,-89.2 				"/>
				<polygon class="st131" points="-62.9,-88.7 -83.5,-88.7 -83.6,-89 -63,-89 				"/>
				<polygon class="st132" points="-62.9,-88.5 -83.4,-88.5 -83.5,-88.7 -62.9,-88.7 				"/>
				<polygon class="st133" points="-62.8,-88.3 -83.4,-88.3 -83.4,-88.5 -62.9,-88.5 				"/>
				<polygon class="st134" points="-62.7,-88 -83.3,-88 -83.4,-88.3 -62.8,-88.3 				"/>
				<polygon class="st135" points="-62.7,-87.8 -83.3,-87.8 -83.3,-88 -62.7,-88 				"/>
				<polygon class="st136" points="-62.6,-87.6 -83.2,-87.6 -83.3,-87.8 -62.7,-87.8 				"/>
				<polygon class="st137" points="-62.5,-87.4 -83.1,-87.4 -83.2,-87.6 -62.6,-87.6 				"/>
				<polygon class="st138" points="-62.5,-87.1 -83.1,-87.1 -83.1,-87.4 -62.5,-87.4 				"/>
				<polygon class="st139" points="-62.4,-86.9 -83,-86.9 -83.1,-87.1 -62.5,-87.1 				"/>
				<polygon class="st140" points="-62.4,-86.7 -82.9,-86.7 -83,-86.9 -62.4,-86.9 				"/>
				<polygon class="st141" points="-62.3,-86.4 -82.9,-86.4 -82.9,-86.7 -62.4,-86.7 				"/>
				<polygon class="st142" points="-62.2,-86.2 -82.8,-86.2 -82.9,-86.4 -62.3,-86.4 				"/>
				<polygon class="st143" points="-62.2,-86 -82.8,-86 -82.8,-86.2 -62.2,-86.2 				"/>
				<polygon class="st144" points="-62.1,-85.8 -82.7,-85.8 -82.8,-86 -62.2,-86 				"/>
				<polygon class="st145" points="-62.1,-85.5 -82.6,-85.5 -82.7,-85.8 -62.1,-85.8 				"/>
				<polygon class="st146" points="-62,-85.3 -82.6,-85.3 -82.6,-85.5 -62.1,-85.5 				"/>
				<polygon class="st147" points="-61.9,-85.1 -82.5,-85.1 -82.6,-85.3 -62,-85.3 				"/>
				<polygon class="st148" points="-61.9,-84.9 -82.5,-84.9 -82.5,-85.1 -61.9,-85.1 				"/>
				<polygon class="st149" points="-61.8,-84.6 -82.4,-84.6 -82.5,-84.9 -61.9,-84.9 				"/>
				<polygon class="st150" points="-61.8,-84.4 -82.3,-84.4 -82.4,-84.6 -61.8,-84.6 				"/>
				<polygon class="st151" points="-61.7,-84.2 -82.3,-84.2 -82.3,-84.4 -61.8,-84.4 				"/>
				<polygon class="st152" points="-61.6,-83.9 -82.2,-83.9 -82.3,-84.2 -61.7,-84.2 				"/>
				<polygon class="st153" points="-61.6,-83.7 -82.2,-83.7 -82.2,-83.9 -61.6,-83.9 				"/>
				<polygon class="st154" points="-61.5,-83.5 -82.1,-83.5 -82.2,-83.7 -61.6,-83.7 				"/>
				<polygon class="st155" points="-61.4,-83.3 -82,-83.3 -82.1,-83.5 -61.5,-83.5 				"/>
				<polygon class="st156" points="-61.4,-83 -82,-83 -82,-83.3 -61.4,-83.3 				"/>
				<polygon class="st157" points="-61.3,-82.8 -81.9,-82.8 -82,-83 -61.4,-83 				"/>
				<polygon class="st158" points="-61.3,-82.6 -81.8,-82.6 -81.9,-82.8 -61.3,-82.8 				"/>
				<polygon class="st159" points="-61.2,-82.3 -81.8,-82.3 -81.8,-82.6 -61.3,-82.6 				"/>
				<polygon class="st160" points="-61.1,-82.1 -81.7,-82.1 -81.8,-82.3 -61.2,-82.3 				"/>
				<polygon class="st161" points="-61.1,-81.9 -81.7,-81.9 -81.7,-82.1 -61.1,-82.1 				"/>
				<polygon class="st162" points="-61,-81.7 -81.6,-81.7 -81.7,-81.9 -61.1,-81.9 				"/>
				<polygon class="st163" points="-61,-81.4 -81.5,-81.4 -81.6,-81.7 -61,-81.7 				"/>
				<polygon class="st164" points="-60.9,-81.2 -81.5,-81.2 -81.5,-81.4 -61,-81.4 				"/>
				<polygon class="st165" points="-60.8,-81 -81.4,-81 -81.5,-81.2 -60.9,-81.2 				"/>
				<polygon class="st166" points="-60.8,-80.7 -81.4,-80.7 -81.4,-81 -60.8,-81 				"/>
				<polygon class="st167" points="-60.7,-80.5 -81.3,-80.5 -81.4,-80.7 -60.8,-80.7 				"/>
				<polygon class="st168" points="-60.7,-80.3 -81.2,-80.3 -81.3,-80.5 -60.7,-80.5 				"/>
				<polygon class="st169" points="-60.6,-80.1 -81.2,-80.1 -81.2,-80.3 -60.7,-80.3 				"/>
				<polygon class="st170" points="-60.5,-79.8 -81.1,-79.8 -81.2,-80.1 -60.6,-80.1 				"/>
				<polygon class="st171" points="-60.5,-79.6 -81.1,-79.6 -81.1,-79.8 -60.5,-79.8 				"/>
				<polygon class="st172" points="-60.4,-79.4 -81,-79.4 -81.1,-79.6 -60.5,-79.6 				"/>
				<polygon class="st173" points="-60.3,-79.2 -80.9,-79.2 -81,-79.4 -60.4,-79.4 				"/>
				<polygon class="st174" points="-60.3,-78.9 -80.9,-78.9 -80.9,-79.2 -60.3,-79.2 				"/>
				<polygon class="st175" points="-60.2,-78.7 -80.8,-78.7 -80.9,-78.9 -60.3,-78.9 				"/>
				<polygon class="st176" points="-60.2,-78.5 -80.7,-78.5 -80.8,-78.7 -60.2,-78.7 				"/>
				<polygon class="st177" points="-60.1,-78.2 -80.7,-78.2 -80.7,-78.5 -60.2,-78.5 				"/>
				<polygon class="st178" points="-60,-78 -80.6,-78 -80.7,-78.2 -60.1,-78.2 				"/>
				<polygon class="st179" points="-60,-77.8 -80.6,-77.8 -80.6,-78 -60,-78 				"/>
				<polygon class="st180" points="-59.9,-77.6 -80.5,-77.6 -80.6,-77.8 -60,-77.8 				"/>
				<polygon class="st181" points="-59.9,-77.3 -80.4,-77.3 -80.5,-77.6 -59.9,-77.6 				"/>
				<polygon class="st182" points="-59.8,-77.1 -80.4,-77.1 -80.4,-77.3 -59.9,-77.3 				"/>
				<polygon class="st183" points="-59.7,-76.9 -80.3,-76.9 -80.4,-77.1 -59.8,-77.1 				"/>
				<polygon class="st184" points="-59.7,-76.6 -80.3,-76.6 -80.3,-76.9 -59.7,-76.9 				"/>
				<polygon class="st185" points="-59.6,-76.4 -80.2,-76.4 -80.3,-76.6 -59.7,-76.6 				"/>
				<polygon class="st186" points="-59.6,-76.2 -80.1,-76.2 -80.2,-76.4 -59.6,-76.4 				"/>
				<polygon class="st187" points="-59.5,-76 -80.1,-76 -80.1,-76.2 -59.6,-76.2 				"/>
				<polygon class="st188" points="-59.4,-75.7 -80,-75.7 -80.1,-76 -59.5,-76 				"/>
				<polygon class="st189" points="-59.4,-75.5 -80,-75.5 -80,-75.7 -59.4,-75.7 				"/>
				<polygon class="st190" points="-59.3,-75.3 -79.9,-75.3 -80,-75.5 -59.4,-75.5 				"/>
				<polygon class="st191" points="-59.2,-75.1 -79.8,-75.1 -79.9,-75.3 -59.3,-75.3 				"/>
				<polygon class="st192" points="-59.2,-74.8 -79.8,-74.8 -79.8,-75.1 -59.2,-75.1 				"/>
				<polygon class="st193" points="-59.1,-74.6 -79.7,-74.6 -79.8,-74.8 -59.2,-74.8 				"/>
				<polygon class="st194" points="-59.1,-74.4 -79.6,-74.4 -79.7,-74.6 -59.1,-74.6 				"/>
				<polygon class="st195" points="-59,-74.1 -79.6,-74.1 -79.6,-74.4 -59.1,-74.4 				"/>
				<polygon class="st196" points="-58.9,-73.9 -79.5,-73.9 -79.6,-74.1 -59,-74.1 				"/>
				<polygon class="st197" points="-58.9,-73.7 -79.5,-73.7 -79.5,-73.9 -58.9,-73.9 				"/>
				<polygon class="st198" points="-58.8,-73.5 -79.4,-73.5 -79.5,-73.7 -58.9,-73.7 				"/>
				<polygon class="st199" points="-58.8,-73.2 -79.3,-73.2 -79.4,-73.5 -58.8,-73.5 				"/>
				<polygon class="st200" points="-59.4,-73 -79.3,-73 -79.3,-73.2 -58.8,-73.2 -58.7,-73.2 				"/>
				<polygon class="st201" points="-60.2,-72.8 -79.2,-72.8 -79.3,-73 -59.4,-73 				"/>
				<polygon class="st202" points="-61.1,-72.5 -79.2,-72.5 -79.2,-72.8 -60.2,-72.8 				"/>
				<polygon class="st203" points="-61.9,-72.3 -79.1,-72.3 -79.2,-72.5 -61.1,-72.5 				"/>
				<polygon class="st204" points="-62.8,-72.1 -79,-72.1 -79.1,-72.3 -61.9,-72.3 				"/>
				<polygon class="st205" points="-63.6,-71.9 -79,-71.9 -79,-72.1 -62.8,-72.1 				"/>
				<polygon class="st206" points="-64.5,-71.6 -78.9,-71.6 -79,-71.9 -63.6,-71.9 				"/>
				<polygon class="st207" points="-65.3,-71.4 -78.9,-71.4 -78.9,-71.6 -64.5,-71.6 				"/>
				<polygon class="st208" points="-66.2,-71.2 -78.8,-71.2 -78.9,-71.4 -65.3,-71.4 				"/>
				<polygon class="st209" points="-67,-71 -78.7,-71 -78.8,-71.2 -66.2,-71.2 				"/>
				<polygon class="st210" points="-67.9,-70.7 -78.7,-70.7 -78.7,-71 -67,-71 				"/>
				<polygon class="st211" points="-68.7,-70.5 -78.6,-70.5 -78.7,-70.7 -67.9,-70.7 				"/>
				<polygon class="st212" points="-69.6,-70.3 -78.5,-70.3 -78.6,-70.5 -68.7,-70.5 				"/>
				<polygon class="st213" points="-70.4,-70 -78.5,-70 -78.5,-70.3 -69.6,-70.3 				"/>
				<polygon class="st214" points="-71.3,-69.8 -78.4,-69.8 -78.5,-70 -70.4,-70 				"/>
				<polygon class="st214" points="-78.4,-69.8 -71.3,-69.8 -77.9,-68 				"/>
			</g>
		</g>
		<g>
			<path class="st107" d="M-74-70.2c2.5,0,4.6-1.6,4.6-3.6v-10.6c1.4,0.5,3.6,1.9,4.2,5c-0.1,0.2-0.2,0.4-0.4,0.5
				c-0.3,0.4-0.3,1,0.1,1.3c0.2,0.2,0.4,0.2,0.6,0.2c0.3,0,0.5-0.1,0.7-0.3c0.2-0.3,0.5-0.6,0.7-0.9c0,0,0-0.1,0.1-0.1
				c0.7-1.2,1.2-2.8,1.3-4.3c0.1-1-0.2-2-0.6-3c-0.7-1.5-2-2.4-3.3-3.2c-0.9-0.6-1.8-1.2-2.4-2l-0.1-0.1c-0.4-0.5-0.8-1-0.8-1.5
				c-0.1-0.5-0.5-0.8-0.9-0.8c0,0,0,0-0.1,0c-0.5,0-0.8,0.4-0.8,0.9v16.2c-0.8-0.5-1.7-0.7-2.7-0.7c-2.5,0-4.6,1.6-4.6,3.6
				C-78.6-71.8-76.5-70.2-74-70.2 M-74-69.5c-2.9,0-5.3-1.9-5.3-4.3c0-2.4,2.4-4.3,5.3-4.3c0.7,0,1.4,0.1,2,0.3v-15.1
				c0-0.8,0.7-1.5,1.5-1.6l0,0l0,0c0,0,0.1,0,0.1,0c0.8,0,1.5,0.6,1.6,1.4c0,0.3,0.4,0.8,0.7,1.2l0.1,0.1c0.5,0.7,1.4,1.3,2.2,1.9
				c1.3,0.8,2.7,1.8,3.5,3.5c0.5,1.1,0.8,2.2,0.7,3.4c-0.1,1.6-0.6,3.3-1.4,4.6c0,0-0.1,0.1-0.1,0.1c-0.2,0.3-0.4,0.7-0.7,1
				c-0.3,0.3-0.7,0.5-1.2,0.5c-0.4,0-0.8-0.1-1.1-0.4c-0.3-0.3-0.5-0.7-0.5-1.1c0-0.4,0.1-0.8,0.4-1.2c0,0,0.1-0.1,0.1-0.2
				c-0.5-2-1.7-3.1-2.8-3.7v9.5C-68.7-71.4-71.1-69.5-74-69.5z"/>
		</g>
	</g>
</g>
<g class="st215">
	<path class="st216" d="M41.9,28h-4.6l2.9-19.1L48,20l7.7-11.1l3,19.1h-4.7L53,18.7l-5,7.6l-5-7.6L41.9,28z"/>
	<path class="st216" d="M66.5,25.5c1.2,0,2.1-0.8,2.1-2.2V16h4v12h-4v-1.8c-0.7,1.3-1.9,2.1-3.6,2.1c-3,0-4.3-1.7-4.3-4.5V16h4.1
		v7.3C64.7,24.7,65.2,25.5,66.5,25.5z"/>
	<path class="st216" d="M79.6,25.6c0.8,0,1.2-0.4,1.2-0.9c0-0.8-0.6-1.1-2.5-1.7c-1.7-0.6-3.4-1.5-3.4-3.8c0-2.2,1.9-3.4,4.5-3.4
		c2.1,0,3.7,0.8,5.1,1.8l-1.4,2.6c-1-0.9-2.4-1.6-3.5-1.6c-0.7,0-1.1,0.3-1.1,0.8c0,0.8,1,1,2.8,1.7c1.8,0.7,3.5,1.5,3.5,3.7
		c0,2.5-1.6,3.9-4.5,3.9c-2.6,0-4.6-1-6.2-2.2l1.6-2.6C77.5,25.2,78.8,25.6,79.6,25.6z"/>
	<path class="st216" d="M88.4,9.4c1.3,0,2.3,0.9,2.3,2.1s-1,2.1-2.3,2.1s-2.3-0.9-2.3-2.1S87.1,9.4,88.4,9.4z M90.3,16v12h-3.8V16
		H90.3z"/>
	<path class="st216" d="M99.5,25.1c1.4,0,2.8-0.6,3.5-1.8v3.8c-0.8,0.7-2.1,1.1-3.8,1.1c-4,0-6.9-2.5-6.9-6.2c0-3.8,2.9-6.2,6.9-6.2
		c1.8,0,3,0.4,3.8,1v3.8c-0.7-1.1-2.2-1.7-3.5-1.7c-1.8,0-3.2,1.3-3.2,3.1C96.3,23.9,97.8,25.1,99.5,25.1z"/>
	<path class="st216" d="M116.6,7.7V28h-4V7.7H116.6z"/>
	<path class="st216" d="M123.6,33.7h-4l2.9-6.7l-5.2-11h4.3l2.8,7l2.8-7h4.1L123.6,33.7z"/>
	<path class="st216" d="M137.9,19.4c-1.1,0-1.9,0.9-1.9,2.7V28h-3.9V16h3.9v1.5c0.8-1.1,1.9-1.8,3-1.8c0.9,0,1.7,0.4,2.2,1l-1.7,3.4
		C139,19.7,138.6,19.4,137.9,19.4z"/>
	<path class="st216" d="M144.3,9.4c1.3,0,2.3,0.9,2.3,2.1s-1,2.1-2.3,2.1c-1.3,0-2.3-0.9-2.3-2.1S143.1,9.4,144.3,9.4z M146.2,16v12
		h-3.8V16H146.2z"/>
	<path class="st216" d="M155.4,25.1c1.4,0,2.8-0.6,3.5-1.8v3.8c-0.8,0.7-2.1,1.1-3.8,1.1c-4,0-6.9-2.5-6.9-6.2
		c0-3.8,2.9-6.2,6.9-6.2c1.8,0,3,0.4,3.8,1v3.8c-0.7-1.1-2.2-1.7-3.5-1.7c-1.8,0-3.2,1.3-3.2,3.1C152.2,23.9,153.7,25.1,155.4,25.1z
		"/>
	<path class="st216" d="M165.8,25.6c0.8,0,1.2-0.4,1.2-0.9c0-0.8-0.6-1.1-2.5-1.7c-1.7-0.6-3.4-1.5-3.4-3.8c0-2.2,1.9-3.4,4.5-3.4
		c2.1,0,3.7,0.8,5.1,1.8l-1.4,2.6c-1-0.9-2.4-1.6-3.5-1.6c-0.7,0-1.1,0.3-1.1,0.8c0,0.8,1,1,2.8,1.7c1.8,0.7,3.5,1.5,3.5,3.7
		c0,2.5-1.6,3.9-4.5,3.9c-2.6,0-4.6-1-6.2-2.2l1.6-2.6C163.7,25.2,165,25.6,165.8,25.6z"/>
</g>
</svg>
